<svg width="1406" height="792" viewBox="0 0 1406 792" fill="none" xmlns="http://www.w3.org/2000/svg">
<path d="M1026.22 591.876C993.972 591.876 967.74 565.622 967.74 533.373C967.74 501.124 993.972 474.892 1026.22 474.892C1058.47 474.892 1084.71 501.119 1084.71 533.373C1084.71 565.627 1058.47 591.876 1026.22 591.876ZM379.779 591.876C347.531 591.876 321.298 565.622 321.298 533.373C321.298 501.124 347.525 474.892 379.779 474.892C412.028 474.892 438.261 501.119 438.261 533.373C438.261 565.627 412.033 591.876 379.779 591.876ZM1047.2 239.575L1164.08 37.1331C1167.3 31.5462 1168.17 24.9111 1166.5 18.6836C1164.83 12.4562 1160.76 7.14504 1155.18 3.91557C1149.6 0.699501 1142.96 -0.169511 1136.73 1.49913C1130.51 3.16776 1125.2 7.23781 1121.97 12.8167L1003.62 217.817C913.107 176.517 811.463 153.507 703 153.507C594.537 153.507 492.893 176.517 402.388 217.817L284.034 12.8167C280.803 7.23781 275.492 3.16776 269.265 1.49913C263.038 -0.169511 256.404 0.699501 250.816 3.91557C245.233 7.14201 241.159 12.4532 239.49 18.6819C237.821 24.9106 238.693 31.5472 241.915 37.1331L358.803 239.575C158.09 348.739 20.8146 551.935 0.732056 792H1405.27C1385.17 551.941 1247.89 348.739 1047.2 239.57" fill="#3DDB85"/>
</svg>
